<?xml version="1.0" encoding="UTF-8" ?>
<svg
  width="240px"
  height="180px"
  viewBox="0 0 240 180"
  version="1.1"
  xmlns="http://www.w3.org/2000/svg"
  xmlns:xlink="http://www.w3.org/1999/xlink"
>
  <defs>
    <linearGradient
      x1="55.3947103%"
      y1="13.8570604%"
      x2="50.1184762%"
      y2="90.9874811%"
      id="trustero-icon-linearGradient-1"
    >
      <stop stop-color="#4FE1D7" offset="0%" />
      <stop stop-color="#00B7A3" offset="100%" />
    </linearGradient>
    <linearGradient
      x1="50%"
      y1="-29.5717488%"
      x2="50.1184762%"
      y2="98.3468127%"
      id="trustero-icon-linearGradient-2"
    >
      <stop stop-color="#4FE1D7" offset="0%" />
      <stop stop-color="#00B7A3" offset="100%" />
    </linearGradient>
  </defs>
  <g
    id="trustero-icon-Page-1"
    stroke="none"
    stroke-width="1"
    fill="none"
    fill-rule="evenodd"
  >
    <g id="trustero-icon-home" transform="translate(-447.000000, -168.000000)">
      <g
        id="trustero-icon-Group-1"
        transform="translate(447.000000, 168.507375)"
      >
        <g
          id="trustero-icon-Group-2"
          transform="translate(0.000000, -0.000000)"
        >
          <path
            d="M187.302734,-2.13162821e-14 C189.629343,1.84292035 191.457393,4.30850541 192.786884,7.39675516 C194.116375,10.4933628 194.781121,13.8783186 194.781121,17.5516224 C194.781121,21.7347591 193.784002,25.8677483 191.789766,29.9631268 C189.79553,34.0626844 178,43.0268051 163.313477,44.6703597 C148.626953,46.3139144 130.410591,40.7448378 124.016571,38.4882006 C121.136616,37.4724402 118.332421,36.3643901 115.603986,35.1629069 C100.309267,114.01177 92.233637,155.23453 91.3769531,158.834107 C89.9739227,164.729299 87.8110352,178.492625 76.2207031,178.492625 L37.9311523,178.492625 L37.9311523,178.492625 C48.9921875,170.316356 50.1974522,162.088922 51.1910828,158.834107 C52.1847134,155.579292 53.0914013,151.368897 53.9235669,146.190403 L71.0636943,56.5578106 C73.603242,43.2630427 78.4394347,33.0405641 85.5612857,25.8903749 C85.8585319,25.591946 86.1597596,25.298869 86.4649682,25.0111439 C87.6513183,23.8934445 88.9242154,22.8485894 90.2836595,21.8765786 C82.8642186,18.2699337 74.5332395,14.9799301 68.5673828,14.9799301 C57.0850144,14.9799301 50.6868396,18.3915929 45.3688761,24.0707965 C40.0467579,29.7583579 37.304683,38.1120944 37.1426513,49.1445428 C37.1426513,53.9963127 37.5996638,58.6349558 38.5136888,63.060472 C39.4277137,67.4901672 41.1311239,72.1329892 43.6239193,76.9764012 C41.4634966,78.9823009 38.9707012,80.4073255 36.1455331,81.2389381 C33.3162104,82.0789086 30.7444765,82.4926254 28.4178674,82.4926254 C22.2689721,82.4926254 17.0341018,81.0341691 12.7132565,78.1047198 C8.38825648,75.1836283 5.19332373,71.2094395 3.11599424,66.1946903 C1.03451009,61.179941 7.10542736e-14,55.5843166 7.10542736e-14,49.3952802 C0.1620317,41.5388397 2.24351585,33.8495575 6.23198847,26.3274336 C10.2204611,18.8053097 16.410903,12.5368732 24.8033141,7.52212389 C33.1957253,2.50737463 43.956292,-2.13162821e-14 57.0850144,-2.13162821e-14 C66.7196686,-2.13162821e-14 75.7394332,0.71460177 84.1318444,2.13126844 C92.5201009,3.55629302 100.625841,4.97713864 108.436599,6.39380531 C112.246726,7.08893925 121.239748,8.20967555 130.359182,9.17538277 L131.727414,9.31900356 C131.955399,9.34272238 132.183306,9.36632616 132.411055,9.38980583 L133.77502,9.52912195 C142.166648,10.3781587 150.12563,11.0324484 153.649997,11.0324484 C160.297451,11.0324484 166.400645,10.3262045 171.972043,8.90117994 C177.539286,7.48451327 182.649516,4.51327434 187.302734,-2.13162821e-14 Z"
            id="trustero-icon-Combined-Shape"
            fill="url(#trustero-icon-linearGradient-1)"
          />
          <path
            d="M124.947754,166.492625 C126.589033,163.351077 128.353516,159.406688 135.341309,116.254344 C137.096256,105.416858 140.875391,85.2905557 146.678711,55.8754379 C152.969727,57.2068181 158.75944,57.8725082 164.047852,57.8725082 C169.336263,57.8725082 174.529615,56.5870264 179.627907,54.0160629 L176.135307,78.4263193 C179.627907,70.791887 184.534179,64.8138651 190.854123,60.4922533 C197.174066,56.174793 204.575053,54.0160629 213.057082,54.0160629 C222.038055,54.0160629 228.773784,56.4695427 233.264271,61.3640482 C237.754757,66.2627051 240,72.784561 240,80.9171618 C240,90.2163071 237.293235,98.0666123 231.892178,104.455623 C226.486963,110.848786 219.54334,114.045367 211.061311,114.045367 C208.566596,114.045367 206.071882,113.713255 203.577167,113.04903 C201.082452,112.388957 199.169838,111.226563 197.839323,109.56185 C200.334038,106.240727 202.412967,102.089323 204.07611,97.107638 C205.739253,92.125953 206.570825,87.5594084 206.570825,83.4080043 C206.570825,80.4189933 205.988724,77.9696648 204.824524,76.0600189 C203.660324,74.1545244 201.498238,73.19555 198.338266,73.19555 C195.178295,73.19555 192.309373,74.3164292 189.731501,76.5581874 C187.149471,78.7999457 184.904228,81.8761361 182.995772,85.7743046 C181.083157,89.6807759 177.254395,98.3998662 173.6875,114.045367 C172.346981,119.925297 169.354025,136.777229 167.424316,147.672801 C164.219397,165.768505 160.772461,178.492625 151.901855,178.492625 C148.265625,178.492625 127.796875,178.492625 114.948242,178.492625 C114.527726,178.492625 121.179687,173.705028 124.947754,166.492625 Z"
            id="trustero-icon-Fill-4"
            fill="url(#trustero-icon-linearGradient-2)"
          />
        </g>
      </g>
    </g>
  </g>
</svg>
